<?xml version="1.0" standalone="no"?>
<!DOCTYPE svg PUBLIC "-//W3C//DTD SVG 20010904//EN"
 "http://www.w3.org/TR/2001/REC-SVG-20010904/DTD/svg10.dtd">
<svg version="1.0" xmlns="http://www.w3.org/2000/svg"
 width="520.000000pt" height="520.000000pt" viewBox="0 0 520.000000 520.000000"
 preserveAspectRatio="xMidYMid meet">
<metadata>
Created by potrace 1.11, written by Peter Selinger 2001-2013
</metadata>
<g transform="translate(0.000000,520.000000) scale(0.100000,-0.100000)"
fill="#000000" stroke="none">
<path d="M2371 5189 c-783 -70 -1490 -489 -1931 -1146 -581 -868 -584 -2011
-6 -2877 200 -299 427 -527 723 -726 872 -584 2014 -584 2886 0 1194 802 1515
2413 717 3603 -353 525 -868 896 -1482 1066 -274 76 -614 106 -907 80z m802
-493 c96 -35 117 -84 117 -281 0 -82 -5 -166 -10 -187 -12 -40 -58 -91 -101
-108 l-28 -12 49 -99 c120 -238 246 -609 317 -929 l27 -125 3 -1010 c3 -684 0
-1032 -7 -1080 -26 -169 -150 -307 -315 -350 -88 -23 -1162 -23 -1250 0 -163
42 -288 180 -315 345 -6 41 -10 416 -10 1030 0 1067 0 1063 65 1324 68 277
196 637 290 813 l43 81 -28 12 c-42 17 -88 68 -100 108 -5 21 -10 105 -10 187
0 197 21 246 117 281 56 19 1090 19 1146 0z"/>
<path d="M2090 4405 l0 -125 510 0 510 0 0 125 0 125 -510 0 -510 0 0 -125z"/>
<path d="M2238 4073 c-86 -96 -238 -468 -331 -810 l-26 -93 719 0 718 0 -20
73 c-95 343 -250 723 -338 830 l-31 37 -329 0 -328 0 -34 -37z"/>
<path d="M1879 2733 c0 -5 58 -293 128 -641 l128 -633 80 3 80 3 130 638 131
637 -96 0 -96 0 -63 -387 c-87 -532 -83 -513 -91 -483 -4 14 -38 215 -75 448
l-69 422 -93 0 c-51 0 -93 -3 -94 -7z"/>
<path d="M2670 2100 l0 -640 90 0 90 0 0 275 0 276 57 -3 57 -3 85 -272 85
-273 93 0 c51 0 93 4 93 8 0 5 -43 136 -95 293 -90 266 -95 285 -78 296 43 31
83 78 104 121 18 39 23 69 27 169 6 162 -16 242 -86 312 -71 71 -114 81 -338
81 l-184 0 0 -640z m390 435 c64 -64 64 -265 0 -329 -29 -29 -35 -31 -120 -34
l-90 -4 0 202 0 202 90 -4 c84 -3 91 -5 120 -33z"/>
<path d="M1830 993 c0 -136 10 -169 66 -231 80 -90 55 -87 704 -87 649 0 624
-3 704 87 56 62 66 95 66 231 l0 107 -770 0 -770 0 0 -107z"/>
</g>
</svg>
